# xmcd
#
# Track frame offsets: 
#        150
#        19665
#        35140
#        51130
#        80212
#        93960
#        111655
#        127625
#        143290
#        173387
#        189802
#        209202
#        227382
#        244260
#        260490
#        275377
#
# Disc length: 3785 seconds
#
# Revision: 0
# Processed by: cddbd v1.5.1PL0 Copyright (c) Steve Scherf et al.
# Submitted via: ExactAudioCopy v0.95a5
#
DISCID=d40ec710
DTITLE=Various Artist - Mad Dogs and Okies
DYEAR=2005
DGENRE=Country
TTITLE0=Vince Gill - Wait Til Your Daddy Gets Home
TTITLE1=Eric Clapton - Positively
TTITLE2=Taj Mahal - Don't Let Your Feet Git Cold
TTITLE3=Williis Alan Ramsey - Sympathy For A Train
TTITLE4=Zadig and Marcella - Promises
TTITLE5=Tony Joe White - Magnolia
TTITLE6=Bonnie Bramlett - Make Your Move
TTITLE7=Wiley Hunt - Shotgun Shack
TTITLE8=Peter Frampton - Sending Me Angels
TTITLE9=Ray Benson - Time To Boogie
TTITLE10=Steve Pryor - Can't Find My Way Home
TTITLE11=Taj Mahal - Stagger Lee
TTITLE12=J.J. Cale - Daylight
TTITLE13=Joe and Ellen - Song For You
TTITLE14=Willie Nelson and J.J. Cale - Motormouth
TTITLE15=Bonnie Bramlett - Make Your Move Revisited
EXTD=
EXTT0=
EXTT1=
EXTT2=
EXTT3=
EXTT4=
EXTT5=
EXTT6=
EXTT7=
EXTT8=
EXTT9=
EXTT10=
EXTT11=
EXTT12=
EXTT13=
EXTT14=
EXTT15=
PLAYORDER=
